<svg id="Layer_1" data-name="Layer 1" xmlns="http://www.w3.org/2000/svg" viewBox="0 0 124.18 99.84"><defs><style>.cls-1{fill:#fff;}.cls-2,.cls-3,.cls-4,.cls-5{fill:#1d1d1b;}.cls-3{font-size:36px;}.cls-3,.cls-4{font-family:Didot;}.cls-4{font-size:16px;}.cls-5{font-size:10px;font-family:Didot-Bold, Didot;font-weight:700;}</style></defs><path class="cls-1" d="M45.74,20.26.69,64.93"/><path class="cls-2" d="M45.74,20.26A488.27,488.27,0,0,1,.69,64.93,488.27,488.27,0,0,1,45.74,20.26Z"/><path class="cls-1" d="M83.6,52.81V92.32"/><path class="cls-2" d="M83.6,52.81a189.73,189.73,0,0,1,0,39.51,189.73,189.73,0,0,1,0-39.51Z"/><path class="cls-1" d="M14.4,51.49V91"/><path class="cls-2" d="M14.4,51.49A189.73,189.73,0,0,1,14.4,91a188.37,188.37,0,0,1,0-39.51Z"/><path class="cls-1" d="M46.07,20.26,94,61.81"/><path class="cls-2" d="M46.07,20.26A487,487,0,0,1,94,61.81,488.34,488.34,0,0,1,46.07,20.26Z"/><text class="cls-3" transform="translate(23.85 69.16)">c</text><text class="cls-4" transform="translate(43.04 68.74)">ozy</text><text class="cls-5" transform="translate(51.86 85.76)">Home</text><path class="cls-2" d="M15.75,6.43a5.6,5.6,0,0,1,2.25,5C17.36,15,13,16.66,16.75,20,18.09,21.15,19.66,22,21,23.38a4,4,0,0,1-.15,6.07c-1.31,1.12-2.76,1.66-2.7,3.45.36,3.24,3.52,6,5.89,8.13-3.19-1.82-6.63-4-7.44-8a3.9,3.9,0,0,1,.93-3.12A20.5,20.5,0,0,1,19.59,28c3.46-3.16-5.24-5.73-5.84-9.29a4.06,4.06,0,0,1,.33-3.21C15,13.85,16.54,13,17,11.2a5.59,5.59,0,0,0-1.29-4.77Z"/></svg>